Source: Drag.Me.To.Hell.2009.BluRay.720p.x264.DTS-WiKi

Subs: Arabic, Brazilian, Bulgarian, Croatian, Danish, Dutch, English, Finnish, French, Greek, HUngarian, Norwegian, Persian, Polish, Portuguese, Serbian, Slovenian, Spanish, Swedish and Vietnamese.

Sample and Screens included.

General
Complete name                    : Drag Me To Hell-720p MP4 AAC BRRip 2009-CC.mp4
Format                           : MPEG-4
Format profile                   : Base Media
Codec ID                         : isom
File size                        : 1.90 GiB
Duration                         : 1h 38mn
Overall bit rate                 : 2 755 Kbps


Video
ID                               : 1
Format                           : AVC
Format/Info                      : Advanced Video Codec
Format profile                   : High@L3.1
Format settings, CABAC           : Yes
Format settings, ReFrames        : 5 frames
Codec ID                         : avc1
Codec ID/Info                    : Advanced Video Coding
Duration                         : 1h 38mn
Bit rate mode                    : Variable
Bit rate                         : 2 367 Kbps
Nominal bit rate                 : 2 383 Kbps
Maximum bit rate                 : 13.2 Mbps
Width                            : 1 280 pixels
Height                           : 528 pixels
Display aspect ratio             : 2.35:1
Frame rate mode                  : Variable
Frame rate                       : 23.976 fps
Minimum frame rate               : 15.932 fps
Maximum frame rate               : 24.390 fps
Resolution                       : 24 bits
Colorimetry                      : 4:2:0
Scan type                        : Progressive
Bits/(Pixel*Frame)               : 0.146
Stream size                      : 1.63 GiB (86%)
Writing library                  : x264 core 112

Audio
ID                               : 2
Format                           : AAC
Format/Info                      : Advanced Audio Codec
Format version                   : Version 4
Format profile                   : LC
Format settings, SBR             : No
Codec ID                         : 40
Duration                         : 1h 38mn
Bit rate mode                    : Variable
Bit rate                         : 384 Kbps
Maximum bit rate                 : 773 Kbps
Channel(s)                       : 6 channels
Channel positions                : Front: L C R, Rear: L R, LFE
Sampling rate                    : 48.0 KHz
Resolution                       : 16 bits
Stream size                      : 271 MiB (14%)

Enjoy...